<svg xmlns="http://www.w3.org/2000/svg" xmlns:xlink="http://www.w3.org/1999/xlink" width="500" zoomAndPan="magnify" viewBox="0 0 375 374.999991" height="500" preserveAspectRatio="xMidYMid meet" version="1.0"><defs><g/><clipPath id="id1"><path d="M 133 164 L 241 164 L 241 218 L 133 218 Z M 133 164 " clip-rule="nonzero"/></clipPath><clipPath id="id2"><path d="M 118.289062 154.96875 L 229.175781 120.058594 L 256.878906 208.050781 L 145.992188 242.960938 Z M 118.289062 154.96875 " clip-rule="nonzero"/></clipPath><clipPath id="id3"><path d="M 118.289062 154.96875 L 229.175781 120.058594 L 256.878906 208.050781 L 145.992188 242.960938 Z M 118.289062 154.96875 " clip-rule="nonzero"/></clipPath><clipPath id="id4"><path d="M 131 149 L 241 149 L 241 188 L 131 188 Z M 131 149 " clip-rule="nonzero"/></clipPath><clipPath id="id5"><path d="M 118.289062 154.96875 L 229.175781 120.058594 L 256.878906 208.050781 L 145.992188 242.960938 Z M 118.289062 154.96875 " clip-rule="nonzero"/></clipPath><clipPath id="id6"><path d="M 118.289062 154.96875 L 229.175781 120.058594 L 256.878906 208.050781 L 145.992188 242.960938 Z M 118.289062 154.96875 " clip-rule="nonzero"/></clipPath><clipPath id="id7"><path d="M 134 191 L 243 191 L 243 204 L 134 204 Z M 134 191 " clip-rule="nonzero"/></clipPath><clipPath id="id8"><path d="M 118.289062 154.96875 L 229.175781 120.058594 L 256.878906 208.050781 L 145.992188 242.960938 Z M 118.289062 154.96875 " clip-rule="nonzero"/></clipPath><clipPath id="id9"><path d="M 118.289062 154.96875 L 229.175781 120.058594 L 256.878906 208.050781 L 145.992188 242.960938 Z M 118.289062 154.96875 " clip-rule="nonzero"/></clipPath><clipPath id="id10"><path d="M 174 132 L 209 132 L 209 168 L 174 168 Z M 174 132 " clip-rule="nonzero"/></clipPath><clipPath id="id11"><path d="M 118.289062 154.96875 L 229.175781 120.058594 L 256.878906 208.050781 L 145.992188 242.960938 Z M 118.289062 154.96875 " clip-rule="nonzero"/></clipPath><clipPath id="id12"><path d="M 118.289062 154.96875 L 229.175781 120.058594 L 256.878906 208.050781 L 145.992188 242.960938 Z M 118.289062 154.96875 " clip-rule="nonzero"/></clipPath><clipPath id="id13"><path d="M 173 149 L 211 149 L 211 170 L 173 170 Z M 173 149 " clip-rule="nonzero"/></clipPath><clipPath id="id14"><path d="M 118.289062 154.96875 L 229.175781 120.058594 L 256.878906 208.050781 L 145.992188 242.960938 Z M 118.289062 154.96875 " clip-rule="nonzero"/></clipPath><clipPath id="id15"><path d="M 118.289062 154.96875 L 229.175781 120.058594 L 256.878906 208.050781 L 145.992188 242.960938 Z M 118.289062 154.96875 " clip-rule="nonzero"/></clipPath><clipPath id="id16"><path d="M 177 133 L 193 133 L 193 164 L 177 164 Z M 177 133 " clip-rule="nonzero"/></clipPath><clipPath id="id17"><path d="M 118.289062 154.96875 L 229.175781 120.058594 L 256.878906 208.050781 L 145.992188 242.960938 Z M 118.289062 154.96875 " clip-rule="nonzero"/></clipPath><clipPath id="id18"><path d="M 118.289062 154.96875 L 229.175781 120.058594 L 256.878906 208.050781 L 145.992188 242.960938 Z M 118.289062 154.96875 " clip-rule="nonzero"/></clipPath><clipPath id="id19"><path d="M 186 136 L 197 136 L 197 167 L 186 167 Z M 186 136 " clip-rule="nonzero"/></clipPath><clipPath id="id20"><path d="M 118.289062 154.96875 L 229.175781 120.058594 L 256.878906 208.050781 L 145.992188 242.960938 Z M 118.289062 154.96875 " clip-rule="nonzero"/></clipPath><clipPath id="id21"><path d="M 118.289062 154.96875 L 229.175781 120.058594 L 256.878906 208.050781 L 145.992188 242.960938 Z M 118.289062 154.96875 " clip-rule="nonzero"/></clipPath><clipPath id="id22"><path d="M 196 139 L 202 139 L 202 163 L 196 163 Z M 196 139 " clip-rule="nonzero"/></clipPath><clipPath id="id23"><path d="M 118.289062 154.96875 L 229.175781 120.058594 L 256.878906 208.050781 L 145.992188 242.960938 Z M 118.289062 154.96875 " clip-rule="nonzero"/></clipPath><clipPath id="id24"><path d="M 118.289062 154.96875 L 229.175781 120.058594 L 256.878906 208.050781 L 145.992188 242.960938 Z M 118.289062 154.96875 " clip-rule="nonzero"/></clipPath><clipPath id="id25"><path d="M 133 168 L 156 168 L 156 181 L 133 181 Z M 133 168 " clip-rule="nonzero"/></clipPath><clipPath id="id26"><path d="M 118.289062 154.96875 L 229.175781 120.058594 L 256.878906 208.050781 L 145.992188 242.960938 Z M 118.289062 154.96875 " clip-rule="nonzero"/></clipPath><clipPath id="id27"><path d="M 118.289062 154.96875 L 229.175781 120.058594 L 256.878906 208.050781 L 145.992188 242.960938 Z M 118.289062 154.96875 " clip-rule="nonzero"/></clipPath><clipPath id="id28"><path d="M 157 179 L 180 179 L 180 185 L 157 185 Z M 157 179 " clip-rule="nonzero"/></clipPath><clipPath id="id29"><path d="M 118.289062 154.96875 L 229.175781 120.058594 L 256.878906 208.050781 L 145.992188 242.960938 Z M 118.289062 154.96875 " clip-rule="nonzero"/></clipPath><clipPath id="id30"><path d="M 118.289062 154.96875 L 229.175781 120.058594 L 256.878906 208.050781 L 145.992188 242.960938 Z M 118.289062 154.96875 " clip-rule="nonzero"/></clipPath><clipPath id="id31"><path d="M 198 175 L 220 175 L 220 181 L 198 181 Z M 198 175 " clip-rule="nonzero"/></clipPath><clipPath id="id32"><path d="M 118.289062 154.96875 L 229.175781 120.058594 L 256.878906 208.050781 L 145.992188 242.960938 Z M 118.289062 154.96875 " clip-rule="nonzero"/></clipPath><clipPath id="id33"><path d="M 118.289062 154.96875 L 229.175781 120.058594 L 256.878906 208.050781 L 145.992188 242.960938 Z M 118.289062 154.96875 " clip-rule="nonzero"/></clipPath><clipPath id="id34"><path d="M 136 196 L 148 196 L 148 200 L 136 200 Z M 136 196 " clip-rule="nonzero"/></clipPath><clipPath id="id35"><path d="M 118.289062 154.96875 L 229.175781 120.058594 L 256.878906 208.050781 L 145.992188 242.960938 Z M 118.289062 154.96875 " clip-rule="nonzero"/></clipPath><clipPath id="id36"><path d="M 118.289062 154.96875 L 229.175781 120.058594 L 256.878906 208.050781 L 145.992188 242.960938 Z M 118.289062 154.96875 " clip-rule="nonzero"/></clipPath><clipPath id="id37"><path d="M 165 196 L 180 196 L 180 201 L 165 201 Z M 165 196 " clip-rule="nonzero"/></clipPath><clipPath id="id38"><path d="M 118.289062 154.96875 L 229.175781 120.058594 L 256.878906 208.050781 L 145.992188 242.960938 Z M 118.289062 154.96875 " clip-rule="nonzero"/></clipPath><clipPath id="id39"><path d="M 118.289062 154.96875 L 229.175781 120.058594 L 256.878906 208.050781 L 145.992188 242.960938 Z M 118.289062 154.96875 " clip-rule="nonzero"/></clipPath><clipPath id="id40"><path d="M 201 196 L 212 196 L 212 199 L 201 199 Z M 201 196 " clip-rule="nonzero"/></clipPath><clipPath id="id41"><path d="M 118.289062 154.96875 L 229.175781 120.058594 L 256.878906 208.050781 L 145.992188 242.960938 Z M 118.289062 154.96875 " clip-rule="nonzero"/></clipPath><clipPath id="id42"><path d="M 118.289062 154.96875 L 229.175781 120.058594 L 256.878906 208.050781 L 145.992188 242.960938 Z M 118.289062 154.96875 " clip-rule="nonzero"/></clipPath></defs><path fill="#b1f6ff" d="M 218.101562 114.816406 C 208.644531 111.628906 197.898438 109.539062 187.351562 109.539062 C 176.800781 109.539062 166.652344 111.332031 157.296875 114.519531 C 157.097656 114.617188 156.898438 114.617188 156.699219 114.71875 C 121.574219 127.46875 95.699219 161.140625 95.203125 200.121094 L 95.203125 215.289062 L 279.597656 215.289062 L 279.597656 200.128906 C 279.101562 160.941406 253.625 127.269531 218.101562 114.816406 " fill-opacity="1" fill-rule="nonzero"/><path fill="#66d9e8" d="M 187.664062 206.0625 C 149.351562 206.0625 118.289062 210.257812 118.289062 215.4375 C 118.289062 220.613281 149.351562 224.8125 187.664062 224.8125 C 225.980469 224.8125 257.039062 220.613281 257.039062 215.4375 C 257.039062 210.257812 225.980469 206.0625 187.664062 206.0625 " fill-opacity="1" fill-rule="nonzero"/><g clip-path="url(#id1)"><g clip-path="url(#id2)"><g clip-path="url(#id3)"><path fill="#8f603f" d="M 133.335938 176.859375 L 137.710938 214.097656 C 137.964844 216.269531 139.851562 217.878906 142.039062 217.785156 L 236.785156 213.757812 C 239.039062 213.660156 240.8125 211.792969 240.789062 209.539062 L 240.359375 164.882812 L 133.335938 176.859375 " fill-opacity="1" fill-rule="nonzero"/></g></g></g><g clip-path="url(#id4)"><g clip-path="url(#id5)"><g clip-path="url(#id6)"><path fill="#ffd5b8" d="M 133.335938 176.859375 C 133.335938 176.859375 144.136719 168.625 154.40625 166.4375 C 164.671875 164.246094 176.226562 160.246094 188.359375 158 C 200.492188 155.753906 210.898438 147.195312 218.738281 149.964844 C 226.578125 152.734375 242.117188 161.382812 240.359375 164.882812 C 238.601562 168.382812 230.753906 174.515625 230.753906 174.515625 C 230.753906 174.515625 226.472656 179.960938 224.875 184.03125 C 223.28125 188.101562 218.425781 184.378906 216.023438 181.007812 C 213.621094 177.636719 205.191406 178.90625 203.097656 180.839844 C 201.003906 182.769531 195.707031 187.9375 187.347656 186.921875 C 178.988281 185.902344 172.121094 182.097656 164.984375 183.328125 C 157.84375 184.558594 158.566406 189.414062 149.59375 187.113281 C 140.621094 184.8125 127.53125 184.074219 133.335938 176.859375 " fill-opacity="1" fill-rule="nonzero"/></g></g></g><g clip-path="url(#id7)"><g clip-path="url(#id8)"><g clip-path="url(#id9)"><path fill="#ffd5b8" d="M 135.6875 196.878906 C 135.6875 196.878906 133.730469 198.597656 134.742188 200.320312 C 135.75 202.046875 135.980469 203.28125 138.664062 203.390625 C 141.347656 203.496094 147.066406 202.648438 153.679688 202.917969 C 160.292969 203.1875 176.757812 203.246094 178.390625 203.480469 C 180.027344 203.71875 182.125 200.492188 193.039062 200.535156 C 203.953125 200.574219 202.621094 200.902344 212.386719 200.976562 C 222.152344 201.054688 226.425781 203.027344 230.074219 200.328125 C 233.726562 197.628906 241.378906 197.542969 241.378906 197.542969 C 241.378906 197.542969 244.558594 195.183594 241.230469 192.800781 C 237.902344 190.417969 234.929688 193.285156 231.222656 194.167969 C 227.519531 195.046875 220.660156 196.125 214.214844 195.082031 C 207.769531 194.042969 205.265625 193.640625 199.863281 195.34375 C 194.460938 197.042969 184.171875 198.515625 179.542969 197.511719 C 174.917969 196.507812 172.742188 194.28125 165.824219 196.507812 C 158.90625 198.734375 142.90625 191.867188 135.6875 196.878906 " fill-opacity="1" fill-rule="nonzero"/></g></g></g><g clip-path="url(#id10)"><g clip-path="url(#id11)"><g clip-path="url(#id12)"><path fill="#ffa3be" d="M 195.597656 165.988281 C 190.867188 166.835938 184.457031 170.144531 176.402344 165.085938 C 168.347656 160.027344 184.246094 147.398438 187.976562 142.617188 C 191.703125 137.835938 188.816406 132.757812 188.816406 132.757812 C 188.816406 132.757812 199.910156 136.355469 205.734375 145.863281 C 211.5625 155.367188 210.015625 163.410156 195.597656 165.988281 " fill-opacity="1" fill-rule="nonzero"/></g></g></g><g clip-path="url(#id13)"><g clip-path="url(#id14)"><g clip-path="url(#id15)"><path fill="#f4769b" d="M 199.066406 167.636719 C 196.101562 168.570312 192.667969 169.109375 188.882812 169.1875 C 177.238281 169.4375 173.738281 164.925781 173.378906 164.410156 C 172.855469 163.664062 173.039062 162.632812 173.785156 162.109375 C 174.523438 161.59375 175.535156 161.765625 176.066406 162.492188 C 176.160156 162.609375 179.066406 166.097656 188.8125 165.886719 C 198.574219 165.679688 205.546875 162.300781 207.011719 157.070312 C 208.167969 152.941406 207.039062 151.828125 207.027344 151.816406 C 207.089844 151.878906 207.136719 151.898438 207.136719 151.898438 L 208.894531 149.101562 C 209.433594 149.4375 212.011719 151.449219 210.191406 157.957031 C 208.949219 162.398438 204.925781 165.789062 199.066406 167.636719 " fill-opacity="1" fill-rule="nonzero"/></g></g></g><g clip-path="url(#id16)"><g clip-path="url(#id17)"><g clip-path="url(#id18)"><path fill="#ffffff" d="M 178.496094 163.761719 C 178.417969 163.785156 178.332031 163.800781 178.246094 163.808594 C 177.703125 163.835938 177.234375 163.414062 177.207031 162.867188 C 176.929688 157.476562 180.765625 153.945312 184.472656 150.527344 C 186.046875 149.078125 187.675781 147.578125 188.894531 145.992188 C 191.054688 143.183594 191.285156 139.507812 189.566406 135.363281 C 189.457031 135.097656 189.402344 134.964844 189.394531 134.761719 C 189.378906 134.214844 189.808594 133.757812 190.351562 133.742188 C 190.820312 133.726562 191.222656 134.039062 191.339844 134.46875 C 191.351562 134.503906 191.371094 134.546875 191.394531 134.605469 C 193.375 139.371094 193.042969 143.84375 190.464844 147.199219 C 189.140625 148.917969 187.449219 150.476562 185.8125 151.984375 C 182.289062 155.234375 178.957031 158.300781 179.1875 162.765625 C 179.210938 163.226562 178.914062 163.628906 178.496094 163.761719 " fill-opacity="1" fill-rule="nonzero"/></g></g></g><g clip-path="url(#id19)"><g clip-path="url(#id20)"><g clip-path="url(#id21)"><path fill="#ffffff" d="M 188.339844 166.460938 C 188.289062 166.472656 188.242188 166.484375 188.1875 166.492188 C 187.65625 166.570312 187.164062 166.222656 187.070312 165.695312 C 187.007812 165.332031 186.933594 163.183594 186.878906 159.949219 C 186.828125 156.90625 188.644531 154.894531 190.402344 152.945312 C 191.949219 151.234375 193.410156 149.617188 193.828125 147.265625 C 194.730469 142.183594 192.683594 137.832031 192.660156 137.789062 C 192.425781 137.296875 192.632812 136.707031 193.125 136.46875 C 193.617188 136.230469 194.207031 136.4375 194.445312 136.925781 C 194.542969 137.125 196.796875 141.878906 195.777344 147.613281 C 195.257812 150.523438 193.460938 152.515625 191.871094 154.273438 C 190.234375 156.085938 188.820312 157.652344 188.859375 159.914062 C 188.941406 164.632812 189.023438 165.359375 189.027344 165.386719 C 189.082031 165.867188 188.789062 166.316406 188.339844 166.460938 " fill-opacity="1" fill-rule="nonzero"/></g></g></g><g clip-path="url(#id22)"><g clip-path="url(#id23)"><g clip-path="url(#id24)"><path fill="#ffffff" d="M 200.269531 162.21875 C 199.832031 162.355469 199.347656 162.175781 199.113281 161.761719 C 198.125 160.023438 198.492188 158.785156 198.917969 157.351562 C 199.261719 156.191406 199.691406 154.746094 199.707031 152.34375 C 199.75 147.164062 196.214844 141.191406 196.179688 141.132812 C 195.898438 140.664062 196.050781 140.054688 196.523438 139.773438 C 196.988281 139.492188 197.597656 139.644531 197.878906 140.113281 C 198.035156 140.378906 201.734375 146.617188 201.6875 152.359375 C 201.667969 155.042969 201.175781 156.703125 200.816406 157.914062 C 200.425781 159.234375 200.261719 159.78125 200.832031 160.78125 C 201.105469 161.257812 200.9375 161.863281 200.460938 162.132812 C 200.398438 162.167969 200.335938 162.195312 200.269531 162.21875 " fill-opacity="1" fill-rule="nonzero"/></g></g></g><g clip-path="url(#id25)"><g clip-path="url(#id26)"><g clip-path="url(#id27)"><path fill="#ffffff" d="M 134.976562 180.917969 C 134.699219 181.003906 134.386719 180.96875 134.125 180.796875 C 133.671875 180.492188 133.550781 179.875 133.855469 179.421875 C 133.96875 179.257812 136.640625 175.347656 142.121094 172.890625 C 147.3125 170.566406 152.925781 168.984375 154.613281 168.753906 C 155.152344 168.679688 155.652344 169.058594 155.726562 169.601562 C 155.800781 170.140625 155.425781 170.640625 154.882812 170.714844 C 153.625 170.886719 148.226562 172.328125 142.929688 174.699219 C 137.960938 176.921875 135.523438 180.488281 135.5 180.527344 C 135.371094 180.71875 135.183594 180.851562 134.976562 180.917969 " fill-opacity="1" fill-rule="nonzero"/></g></g></g><g clip-path="url(#id28)"><g clip-path="url(#id29)"><g clip-path="url(#id30)"><path fill="#ffffff" d="M 179.128906 184.125 C 178.964844 184.175781 178.78125 184.1875 178.601562 184.144531 C 178.546875 184.128906 172.847656 182.785156 167.441406 181.730469 C 162.578125 180.78125 159.722656 183.609375 159.605469 183.734375 C 159.222656 184.121094 158.59375 184.128906 158.207031 183.75 C 157.816406 183.367188 157.804688 182.746094 158.183594 182.351562 C 158.332031 182.199219 161.871094 178.625 167.820312 179.785156 C 173.265625 180.847656 179.003906 182.203125 179.058594 182.21875 C 179.59375 182.34375 179.921875 182.875 179.796875 183.410156 C 179.710938 183.761719 179.449219 184.023438 179.128906 184.125 " fill-opacity="1" fill-rule="nonzero"/></g></g></g><g clip-path="url(#id31)"><g clip-path="url(#id32)"><g clip-path="url(#id33)"><path fill="#ffffff" d="M 218.792969 179.820312 C 218.445312 179.929688 218.050781 179.84375 217.78125 179.566406 C 217.773438 179.558594 215.851562 177.757812 209.785156 177.164062 C 203.789062 176.570312 200.777344 179.960938 200.652344 180.105469 C 200.292969 180.515625 199.667969 180.566406 199.257812 180.210938 C 198.84375 179.855469 198.792969 179.234375 199.144531 178.820312 C 199.296875 178.644531 202.910156 174.496094 209.980469 175.191406 C 216.777344 175.859375 218.976562 177.953125 219.207031 178.1875 C 219.585938 178.582031 219.574219 179.207031 219.183594 179.589844 C 219.066406 179.699219 218.933594 179.777344 218.792969 179.820312 " fill-opacity="1" fill-rule="nonzero"/></g></g></g><g clip-path="url(#id34)"><g clip-path="url(#id35)"><g clip-path="url(#id36)"><path fill="#ffffff" d="M 146.726562 198.539062 C 146.585938 198.585938 146.433594 198.597656 146.277344 198.574219 C 140.742188 197.714844 138.417969 199.5625 138.394531 199.582031 C 137.976562 199.925781 137.355469 199.875 137.003906 199.460938 C 136.65625 199.046875 136.699219 198.433594 137.105469 198.078125 C 137.226562 197.976562 140.046875 195.601562 146.582031 196.617188 C 147.121094 196.699219 147.492188 197.207031 147.40625 197.746094 C 147.347656 198.132812 147.074219 198.429688 146.726562 198.539062 " fill-opacity="1" fill-rule="nonzero"/></g></g></g><g clip-path="url(#id37)"><g clip-path="url(#id38)"><g clip-path="url(#id39)"><path fill="#ffffff" d="M 179.132812 200.296875 C 178.945312 200.355469 178.734375 200.359375 178.53125 200.296875 C 178.507812 200.285156 175.828125 199.429688 172.359375 198.699219 C 169.335938 198.066406 167.289062 199.695312 167.203125 199.765625 C 166.78125 200.109375 166.15625 200.046875 165.8125 199.628906 C 165.464844 199.207031 165.519531 198.589844 165.941406 198.238281 C 166.054688 198.144531 168.78125 195.925781 172.769531 196.761719 C 176.34375 197.515625 179.027344 198.375 179.140625 198.410156 C 179.660156 198.578125 179.945312 199.136719 179.777344 199.65625 C 179.675781 199.972656 179.429688 200.203125 179.132812 200.296875 " fill-opacity="1" fill-rule="nonzero"/></g></g></g><g clip-path="url(#id40)"><g clip-path="url(#id41)"><g clip-path="url(#id42)"><path fill="#ffffff" d="M 210.527344 198.292969 C 210.363281 198.34375 210.183594 198.355469 210 198.308594 C 206.863281 197.558594 202.386719 198.558594 202.34375 198.566406 C 201.808594 198.6875 201.277344 198.355469 201.15625 197.820312 C 201.035156 197.289062 201.367188 196.757812 201.902344 196.636719 C 202.105469 196.589844 206.871094 195.523438 210.464844 196.386719 C 210.996094 196.511719 211.324219 197.046875 211.195312 197.578125 C 211.113281 197.929688 210.851562 198.191406 210.527344 198.292969 " fill-opacity="1" fill-rule="nonzero"/></g></g></g><g fill="#8f603f" fill-opacity="1"><g transform="translate(137.87409, 256.058527)"><g><path d="M 2.117188 -0.0351562 L 4.742188 -0.292969 C 5.179688 -0.328125 5.507812 -0.730469 5.507812 -1.167969 C 5.472656 -3.5 5.398438 -5.835938 5.363281 -8.207031 C 5.980469 -7.953125 6.710938 -7.84375 7.476562 -7.84375 C 11.488281 -7.84375 13.242188 -11.160156 13.679688 -14.734375 C 14.042969 -17.835938 14.117188 -22.359375 11.5625 -24.621094 C 9.957031 -26.042969 7.332031 -26.191406 5.324219 -25.242188 C 5.253906 -25.605469 4.925781 -25.898438 4.488281 -25.898438 L 1.933594 -25.863281 C 1.460938 -25.863281 1.09375 -25.460938 1.09375 -24.984375 C 1.09375 -16.960938 1.167969 -8.9375 1.167969 -0.910156 C 1.167969 -0.402344 1.605469 0 2.117188 -0.0351562 Z M 6.199219 -11.707031 C 5.652344 -11.707031 5.324219 -12.035156 5.324219 -12.585938 L 5.324219 -21.339844 C 5.324219 -21.886719 5.652344 -22.214844 6.199219 -22.214844 L 7.441406 -22.25 C 9.628906 -22.25 9.738281 -19.550781 9.777344 -18.128906 C 9.8125 -16.597656 9.957031 -12.402344 8.023438 -11.816406 C 7.84375 -11.746094 7.660156 -11.707031 7.476562 -11.707031 Z M 6.199219 -11.707031 "/></g></g></g><g fill="#8f603f" fill-opacity="1"><g transform="translate(152.821821, 256.058527)"><g><path d="M 4.707031 0.144531 C 5.105469 0.144531 5.433594 -0.183594 5.398438 -0.621094 C 5.433594 -2.261719 5.398438 -4.707031 5.398438 -6.75 L 5.433594 -14.992188 L 8.863281 -14.992188 L 8.753906 -2.042969 L 8.753906 -0.910156 C 8.71875 -0.4375 9.082031 -0.0351562 9.519531 0.0351562 L 12.148438 0.0351562 C 12.695312 0.0351562 13.09375 -0.363281 13.058594 -0.875 C 13.023438 -6.308594 13.023438 -15.175781 13.023438 -20.902344 C 13.023438 -21.484375 13.09375 -22.871094 12.367188 -24.183594 C 11.160156 -26.371094 7.222656 -27.613281 3.464844 -25.3125 C 1.277344 -23.964844 1.128906 -21.484375 1.128906 -19.148438 L 1.09375 -0.691406 C 1.09375 -0.292969 1.421875 0.0351562 1.824219 0.0351562 Z M 8.898438 -18.601562 L 5.433594 -18.710938 L 5.433594 -20.609375 C 5.433594 -22.433594 6.929688 -23.164062 8.242188 -22.140625 C 8.863281 -21.667969 8.898438 -20.71875 8.898438 -19.988281 Z M 8.898438 -18.601562 "/></g></g></g><g fill="#8f603f" fill-opacity="1"><g transform="translate(166.967467, 256.058527)"><g><path d="M 2.117188 -0.109375 L 4.742188 -0.363281 C 5.179688 -0.402344 5.507812 -0.800781 5.507812 -1.238281 C 5.472656 -3.355469 5.398438 -5.433594 5.363281 -7.585938 C 5.363281 -7.878906 5.542969 -8.023438 5.800781 -8.023438 L 6.308594 -8.023438 C 7.476562 -7.953125 8.097656 -7.585938 8.132812 -6.199219 C 8.171875 -4.488281 8.28125 -2.480469 8.28125 -0.800781 C 8.28125 0.253906 12.476562 0.402344 12.476562 -0.800781 C 12.476562 -6.710938 12.511719 -8.390625 11.5625 -9.59375 C 12.765625 -10.90625 13.421875 -12.804688 13.679688 -14.808594 C 14.042969 -17.910156 14.117188 -22.433594 11.5625 -24.695312 C 9.957031 -26.117188 7.332031 -26.261719 5.324219 -25.3125 C 5.253906 -25.679688 4.925781 -25.972656 4.488281 -25.972656 L 1.933594 -25.933594 C 1.460938 -25.933594 1.09375 -25.535156 1.09375 -25.058594 C 1.09375 -17.035156 1.167969 -9.007812 1.167969 -0.984375 C 1.167969 -0.472656 1.605469 -0.0742188 2.117188 -0.109375 Z M 5.761719 -11.78125 C 5.507812 -11.78125 5.324219 -11.964844 5.324219 -12.21875 L 5.324219 -21.847656 C 5.324219 -22.105469 5.507812 -22.285156 5.761719 -22.285156 L 7.441406 -22.324219 C 9.628906 -22.324219 9.738281 -19.625 9.777344 -18.203125 C 9.8125 -16.667969 9.957031 -12.476562 8.023438 -11.890625 C 7.660156 -11.746094 7.476562 -11.78125 5.761719 -11.78125 Z M 5.761719 -11.78125 "/></g></g></g><g fill="#8f603f" fill-opacity="1"><g transform="translate(181.915199, 256.058527)"><g><path d="M 4.707031 0.144531 C 5.105469 0.144531 5.433594 -0.183594 5.398438 -0.621094 C 5.433594 -2.261719 5.398438 -4.707031 5.398438 -6.75 L 5.433594 -14.992188 L 8.863281 -14.992188 L 8.753906 -2.042969 L 8.753906 -0.910156 C 8.71875 -0.4375 9.082031 -0.0351562 9.519531 0.0351562 L 12.148438 0.0351562 C 12.695312 0.0351562 13.09375 -0.363281 13.058594 -0.875 C 13.023438 -6.308594 13.023438 -15.175781 13.023438 -20.902344 C 13.023438 -21.484375 13.09375 -22.871094 12.367188 -24.183594 C 11.160156 -26.371094 7.222656 -27.613281 3.464844 -25.3125 C 1.277344 -23.964844 1.128906 -21.484375 1.128906 -19.148438 L 1.09375 -0.691406 C 1.09375 -0.292969 1.421875 0.0351562 1.824219 0.0351562 Z M 8.898438 -18.601562 L 5.433594 -18.710938 L 5.433594 -20.609375 C 5.433594 -22.433594 6.929688 -23.164062 8.242188 -22.140625 C 8.863281 -21.667969 8.898438 -20.71875 8.898438 -19.988281 Z M 8.898438 -18.601562 "/></g></g></g><g fill="#8f603f" fill-opacity="1"><g transform="translate(196.060845, 256.058527)"><g><path d="M 2.078125 0.0351562 L 7.332031 0 C 8.28125 0 9.8125 0.292969 9.8125 -0.65625 C 9.8125 -1.277344 9.777344 -2.152344 9.777344 -2.808594 C 9.777344 -3.320312 9.335938 -3.71875 8.863281 -3.683594 L 7.625 -3.648438 C 7.515625 -9.703125 7.441406 -15.832031 7.476562 -21.886719 L 8.863281 -21.847656 C 9.335938 -21.8125 9.777344 -22.214844 9.777344 -22.722656 C 9.777344 -23.382812 9.8125 -24.257812 9.8125 -24.875 C 9.8125 -25.824219 8.28125 -25.535156 7.332031 -25.535156 L 2.078125 -25.570312 C 1.570312 -25.605469 1.128906 -25.203125 1.128906 -24.695312 C 1.128906 -24 1.09375 -23.34375 1.09375 -22.652344 C 1.09375 -22.140625 1.496094 -21.738281 2.007812 -21.738281 L 3.320312 -21.777344 C 3.429688 -15.792969 3.429688 -9.738281 3.355469 -3.757812 L 3.320312 -3.757812 L 2.007812 -3.792969 C 1.496094 -3.792969 1.09375 -3.390625 1.09375 -2.882812 C 1.09375 -2.1875 1.128906 -1.53125 1.128906 -0.839844 C 1.128906 -0.328125 1.570312 0.0742188 2.078125 0.0351562 Z M 2.078125 0.0351562 "/></g></g></g><g fill="#8f603f" fill-opacity="1"><g transform="translate(206.961742, 256.058527)"><g><path d="M 7.113281 0.328125 C 12.476562 0.328125 14.296875 -3.28125 14.296875 -5.398438 C 14.296875 -8.316406 14.117188 -9.410156 12.035156 -11.636719 L 6.019531 -18.09375 C 5.761719 -18.347656 5.542969 -18.675781 5.433594 -19.039062 C 4.742188 -21.339844 6.054688 -22.03125 8.0625 -22.03125 C 9.996094 -22.03125 9.8125 -20.316406 9.996094 -19.296875 C 10.066406 -18.894531 10.394531 -18.601562 10.6875 -18.601562 C 11.5625 -18.601562 12.476562 -18.566406 13.386719 -18.492188 C 13.859375 -18.421875 14.226562 -18.96875 14.1875 -19.550781 C 13.824219 -25.167969 10.871094 -25.789062 7.734375 -25.789062 C 2.515625 -25.789062 1.019531 -23.234375 1.019531 -19.550781 C 1.019531 -15.613281 7.476562 -10.796875 9.300781 -8.5 C 11.527344 -5.726562 9.335938 -3.464844 7.734375 -3.464844 C 6.273438 -3.464844 4.414062 -4.960938 4.414062 -7.695312 C 4.414062 -8.242188 4.195312 -8.609375 3.757812 -8.609375 L 1.460938 -8.679688 C 1.09375 -8.679688 0.730469 -8.28125 0.730469 -7.878906 C 0.730469 -1.238281 4.304688 0.328125 7.113281 0.328125 Z M 7.113281 0.328125 "/></g></g></g><g fill="#8f603f" fill-opacity="1"><g transform="translate(221.982387, 256.058527)"><g><path d="M 7.550781 0.691406 C 11.855469 0.691406 13.203125 -2.953125 13.679688 -6.820312 C 14.042969 -10.214844 14.734375 -20.71875 11.925781 -25.058594 C 10.324219 -27.574219 4.449219 -27.613281 2.734375 -23.34375 C 1.3125 -19.734375 0.730469 -9.226562 1.3125 -5.617188 C 1.75 -2.078125 3.757812 0.691406 7.550781 0.691406 Z M 8.132812 -3.609375 C 5.253906 -2.664062 5.289062 -6.929688 5.289062 -8.679688 C 5.253906 -10.46875 5.144531 -22.578125 7.550781 -22.980469 C 9.847656 -23.34375 9.957031 -20.023438 10.03125 -10.542969 C 10.03125 -8.898438 10.214844 -4.414062 8.132812 -3.609375 Z M 8.132812 -3.609375 "/></g></g></g><g fill="#f4769b" fill-opacity="1"><g transform="translate(139.318963, 112.404505)"><g><path d="M 6.265625 -2.011719 C 8.34375 -2.746094 9.683594 -4.515625 9.984375 -6.515625 C 8.890625 -6.621094 8.84375 -6.667969 7.648438 -6.832031 C 7.472656 -5.632812 6.671875 -4.636719 5.488281 -4.21875 C 3.757812 -3.609375 1.863281 -4.515625 1.253906 -6.25 C 0.648438 -7.964844 1.550781 -9.871094 3.28125 -10.484375 C 4.421875 -10.882812 5.636719 -10.613281 6.476562 -9.886719 C 7.3125 -10.734375 7.371094 -10.804688 8.097656 -11.59375 C 6.636719 -12.882812 4.523438 -13.402344 2.503906 -12.691406 C -0.441406 -11.652344 -1.980469 -8.386719 -0.953125 -5.46875 C 0.0820312 -2.527344 3.320312 -0.976562 6.265625 -2.011719 Z M 6.265625 -2.011719 "/></g></g></g><g fill="#f4769b" fill-opacity="1"><g transform="translate(151.683016, 108.063837)"><g><path d="M 0.894531 -0.210938 L 3.304688 -0.789062 L 3.664062 -3.359375 L 8.042969 -4.402344 L 9.523438 -2.269531 L 11.933594 -2.84375 L 4.9375 -12.40625 L 2.824219 -11.902344 Z M 3.996094 -5.734375 L 4.523438 -9.460938 L 6.675781 -6.371094 Z M 3.996094 -5.734375 "/></g></g></g><g fill="#f4769b" fill-opacity="1"><g transform="translate(165.165229, 104.962548)"><g><path d="M 0.910156 -0.128906 L 3.210938 -0.449219 L 2.597656 -4.8125 L 7.539062 -5.507812 L 7.242188 -7.628906 L 2.300781 -6.933594 L 1.992188 -9.148438 L 7.582031 -9.929688 L 7.285156 -12.050781 L -0.609375 -10.945312 Z M 0.910156 -0.128906 "/></g></g></g><g fill="#f4769b" fill-opacity="1"><g transform="translate(175.582441, 103.529655)"><g><path d="M 0.917969 -0.0546875 L 8.875 -0.511719 L 8.75 -2.648438 L 3.113281 -2.324219 L 2.984375 -4.585938 L 7.964844 -4.871094 L 7.839844 -7.011719 L 2.863281 -6.722656 L 2.734375 -8.953125 L 8.367188 -9.277344 L 8.246094 -11.414062 L 0.289062 -10.957031 Z M 0.917969 -0.0546875 "/></g></g></g><g fill="#f4769b" fill-opacity="1"><g transform="translate(186.071128, 102.941856)"><g><path d="M 4.050781 0.109375 L 6.378906 0.171875 L 6.613281 -8.609375 L 9.730469 -8.523438 L 9.789062 -10.664062 L 1.210938 -10.894531 L 1.152344 -8.753906 L 4.289062 -8.667969 Z M 4.050781 0.109375 "/></g></g></g><g fill="#f4769b" fill-opacity="1"><g transform="translate(197.182024, 103.280451)"><g><path d="M 0.914062 0.101562 L 8.832031 0.984375 L 9.070312 -1.144531 L 3.460938 -1.769531 L 3.710938 -4.019531 L 8.667969 -3.46875 L 8.90625 -5.597656 L 3.949219 -6.148438 L 4.195312 -8.367188 L 9.804688 -7.742188 L 10.042969 -9.871094 L 2.121094 -10.753906 Z M 0.914062 0.101562 "/></g></g></g><g fill="#f4769b" fill-opacity="1"><g transform="translate(207.612217, 104.445645)"><g><path d="M 0.898438 0.179688 L 3.179688 0.636719 L 3.953125 -3.21875 L 5.105469 -2.988281 L 7.035156 1.40625 L 9.914062 1.984375 L 7.699219 -2.609375 C 9.507812 -2.683594 10.546875 -3.976562 10.835938 -5.414062 C 11.183594 -7.15625 10.484375 -9.058594 7.785156 -9.597656 L 3.046875 -10.546875 Z M 4.316406 -5.035156 L 4.960938 -8.257812 L 6.789062 -7.894531 C 7.914062 -7.667969 8.804688 -7.273438 8.523438 -5.878906 C 8.25 -4.511719 7.269531 -4.441406 6.144531 -4.667969 Z M 4.316406 -5.035156 "/></g></g></g><g fill="#f4769b" fill-opacity="1"><g transform="translate(219.169162, 106.897976)"><g><path d="M 0.886719 0.238281 L 3.132812 0.84375 L 5.96875 -9.707031 L 3.722656 -10.308594 Z M 0.886719 0.238281 "/></g></g></g><g fill="#f4769b" fill-opacity="1"><g transform="translate(223.952763, 108.038446)"><g><path d="M 0.867188 0.304688 L 3.207031 1.121094 L 4.898438 -0.847656 L 9.144531 0.632812 L 9.242188 3.230469 L 11.582031 4.046875 L 10.851562 -7.777344 L 8.800781 -8.496094 Z M 6.457031 -2.667969 L 8.914062 -5.523438 L 9.058594 -1.761719 Z M 6.457031 -2.667969 "/></g></g></g></svg>